<svg xmlns="http://www.w3.org/2000/svg" xmlns:xlink="http://www.w3.org/1999/xlink" version="1.1" width="256" height="256" viewBox="0 0 256 256" xml:space="preserve">

<defs>
</defs>
<g style="stroke: none; stroke-width: 0; stroke-dasharray: none; stroke-linecap: butt; stroke-linejoin: miter; stroke-miterlimit: 10; fill: none; fill-rule: nonzero; opacity: 1;" transform="translate(1.4065934065934016 1.4065934065934016) scale(2.81 2.81)" >
	<path d="M 77.403 90 H 12.597 C 5.651 90 0 84.35 0 77.403 V 12.597 C 0 5.651 5.651 0 12.597 0 h 64.807 C 84.35 0 90 5.651 90 12.597 v 64.807 C 90 84.35 84.35 90 77.403 90 z" style="stroke: none; stroke-width: 1; stroke-dasharray: none; stroke-linecap: butt; stroke-linejoin: miter; stroke-miterlimit: 10; fill: rgb(88,96,198); fill-rule: nonzero; opacity: 1;" transform=" matrix(1 0 0 1 0 0) " stroke-linecap="round" />
	<path d="M 27.429 52.629 c -2.209 0 -4 1.791 -4 4 v 11.8 c 0 2.209 1.791 4 4 4 s 4 -1.791 4 -4 v -11.8 C 31.429 54.42 29.638 52.629 27.429 52.629 z" style="stroke: none; stroke-width: 1; stroke-dasharray: none; stroke-linecap: butt; stroke-linejoin: miter; stroke-miterlimit: 10; fill: rgb(255,255,255); fill-rule: nonzero; opacity: 1;" transform=" matrix(1 0 0 1 0 0) " stroke-linecap="round" />
	<path d="M 45 41 c -2.209 0 -4 1.791 -4 4 v 23.429 c 0 2.209 1.791 4 4 4 s 4 -1.791 4 -4 V 45 C 49 42.791 47.209 41 45 41 z" style="stroke: none; stroke-width: 1; stroke-dasharray: none; stroke-linecap: butt; stroke-linejoin: miter; stroke-miterlimit: 10; fill: rgb(255,255,255); fill-rule: nonzero; opacity: 1;" transform=" matrix(1 0 0 1 0 0) " stroke-linecap="round" />
	<path d="M 62.571 17.571 c -2.209 0 -4 1.791 -4 4 v 46.857 c 0 2.209 1.791 4 4 4 s 4 -1.791 4 -4 V 21.571 C 66.571 19.362 64.78 17.571 62.571 17.571 z" style="stroke: none; stroke-width: 1; stroke-dasharray: none; stroke-linecap: butt; stroke-linejoin: miter; stroke-miterlimit: 10; fill: rgb(255,255,255); fill-rule: nonzero; opacity: 1;" transform=" matrix(1 0 0 1 0 0) " stroke-linecap="round" />
</g>
</svg>